<svg t="1742917189299" class="icon" viewBox="0 0 1024 1024" version="1.1" xmlns="http://www.w3.org/2000/svg" p-id="974" width="200" height="200"><path d="M898.74 438.29a116.93 116.93 0 0 0-87.63-39.54H683.1l34.21-57.62c18.85-28.89 25.33-63.39 18.24-97.15-7.09-33.75-26.9-62.72-55.79-81.59-28.87-18.86-63.38-25.33-97.14-18.24-33.75 7.09-62.72 26.9-81.29 55.33L366.39 398.75H212.83v64.57h183.6l2.9 1.96 1.33-1.96h4.22v-6.23L555.1 235.24c9.43-14.44 23.91-24.35 40.8-27.89 16.87-3.56 34.11-0.31 48.56 9.12 14.44 9.43 24.35 23.91 27.89 40.8 3.55 16.88 0.31 34.13-9.84 49.73L608 398.75h-7.76v64.57h210.87c15.22 0 29.15 6.28 39.22 17.69s14.58 26.02 12.7 41.12l-23.87 190.89c-5.21 41.7-40.83 73.14-82.85 73.14H212.83v64.57h543.48c74.52 0 137.68-55.76 146.91-129.7l23.87-190.89c4.16-33.25-6.18-66.73-28.35-91.85z" fill="#5C02ED" p-id="975"></path><path d="M293.55 850.74H99.84v-64.57h129.14V463.32H99.84v-64.57h193.71z" fill="#6CF96C" p-id="976"></path></svg>